<?xml version="1.0" encoding="utf-8"?>
<!-- Generator: Adobe Illustrator 23.1.1, SVG Export Plug-In . SVG Version: 6.00 Build 0)  -->
<svg version="1.1" id="arrow_xA0_Image_1_" xmlns="http://www.w3.org/2000/svg" xmlns:xlink="http://www.w3.org/1999/xlink" x="0px"
	 y="0px" viewBox="0 0 274 148" style="enable-background:new 0 0 274 148;" xml:space="preserve">
<style type="text/css">
	.st0{fill:#B5944D;}
</style>
<g>
	<path class="st0" d="M191,149c-0.61-2.15-0.46-4.28,0.28-6.37c0.84-2.4,1.33-4.65-2.15-5.33c-0.45-0.09-1.22-0.64-1.19-0.73
		c1.59-4.18-3.74-8.09-0.49-12.32c0.98-1.27,1.69-1.91-0.81-2.95c-3.47-1.44-1.29-4.39-0.43-6.79c0.7-1.96,4.04-4.04-1.16-5.5
		c-2.68-0.75-0.56-4.08,0.31-6.12c1.06-2.47,4.34-5.22-1.69-5.87c-1.9-0.2-1.22-2.23-0.67-3.73c1.43-3.9-0.53-6.21-4.59-5.36
		c-4.87,1.02-9.71,2.21-14.62,3.34c0.18,2.04,2.22,2.32,3.21,3.55c1.26,1.57,1.77,2.4,0.8,4.94c-1.14,2.97-4.03,6.1-2.34,9.95
		c0.43,0.98,0.2,2.59-0.66,2.6c-4.53,0.08-4.62,3.15-4.78,6.37c-0.03,0.6-0.52,1.67-0.85,1.69c-5.57,0.37-4.21,4.84-4.96,8.1
		c-0.21,0.94-0.7,2.43-1.3,2.56c-3.91,0.85-4.26,4.24-5.45,7.06c-0.67,1.59-1.5,3.47-3.47,2.82c-2.7-0.9-4.03,0.62-5.57,2.15
		c-1.04,1.04-2.23,2.59-3.77,1.4c-1.75-1.35-0.51-3.06,0.33-4.45c0.68-1.13,1.68-2.06,2.44-3.15c0.45-0.65,1.19-1.81,0.97-2.1
		c-3.54-4.58,0.7-6.42,3.05-8.89c0.67-0.71,2.01-1.47,1.33-2.36c-3.5-4.61,0.73-6.01,3.2-8.14c1.62-1.4,2.51-2.32-0.6-3.04
		c-3.17-0.73-2.61-2.96-1.14-4.99c1.7-2.35,4.32-3.59,7.17-5.34c-3.96-1.44-5.34-2.91-1.39-5.98c1.44-1.12,2.36-4.74-1.71-5.34
		c-5.22-0.76-10.43-1.55-15.27-3.99c-0.88,2.41,0.02,4.15,0.18,5.92c0.26,2.73,0.27,5.12-3.34,5.39c-1.3,0.1-1.91,1.09-2.68,2
		c-3.08,3.64-9.44,1.23-11.78,6.32c-3.07-2.09-4.34,0.2-5.77,2.3c-0.82,1.22-2.06,1.07-3.46,1.19c-3.6,0.3-7.17,1.12-10.68,2.01
		c-1.14,0.29-2.15,1.21-3.03-0.1c-0.74-1.09-0.4-2.36,0.49-3.2c1.07-1.02,2.33-1.86,3.57-2.67c1.97-1.29,4.72-1.73,1.96-5.32
		c-1.59-2.07,1.56-2.71,3.13-3.82c3.33-2.35,8.03-3.2,9.3-8c0.33-1.23,1.41-2.02,2.62-2c3.78,0.07,5.81-2.11,7.24-5.3
		c-3.32-2.13-6.65-4.27-10.27-6.6c-0.92,2.98-1.13,7.25-5.74,3.65c-0.23-0.18-0.61-0.19-0.92-0.27c-1.21,4.53-6.79,2.02-8.76,5.48
		c-1.08,1.88-2.69,3.2-4.78,1.03c-1.17-1.21-2.21-1.14-3.46-0.12c-1.02,0.83-2.34,1.88-3.42,0.3c-1.42-2.08-2.71-1.2-4.19-0.24
		c-0.89,0.58-2.05,0.87-2.67-0.13c-0.61-0.99,0.33-1.82,1.01-2.55c2.02-2.17,6.04-2.87,5.23-7.19c-0.05-0.27,1.27-0.94,2.03-1.2
		c2.23-0.76,5.34-0.1,4.44-4.54c-0.33-1.67,2.78-1.33,4.22-0.93c2.54,0.71,4.57-0.23,5.59-2.08c1.08-1.96-1.62-2.77-2.5-4.17
		c-0.6-0.96-1.62-1.66-2.47-2.45c-2.08-1.96-4-3.6-4.62,1.1c-0.2,1.5-1.26,3.18-3.01,2.59c-2.15-0.73-2.94,0.33-3.98,1.72
		c-0.86,1.16-2.44,1.99-3.36,0.61c-2.02-3.01-3.17-1.72-4.65,0.37c-2.92,4.13-7.17,1.32-10.49,1.17c-2.22-0.1-0.13-2.7,1.17-3.89
		c1.47-1.34,6.01-0.8,2.91-5.04c-0.58-0.8,1.25-1.76,2.41-1.93c1.64-0.23,3.3-0.27,5.39-0.43c-1.39-2.66-2.19-4.55,2.42-4.37
		c3.75,0.14,4.55-3.2,1.85-6.03c-1.02-1.07-2.22-1.97-3.63-3.2c-0.88,3.04-2.2,5.19-5.62,4.3c-0.38-0.1-1.18,0.22-1.29,0.52
		c-1.55,4.2-5.19,4.18-8.77,5.3c-3.29,1.03-5.4-1.76-8.26-0.93c-0.51,0.15-1.16-1.82-0.56-1.95c4.47-0.91,3.44-6.92,8.4-8.22
		c2.79-0.73,7.42-3.4,7.53-8.41c-4.79,0.48-8.15,3.64-11.48,6.19c-2.91,2.23-6.22,2.07-9.15,3.48c-0.98,0.47-2.02,0.3-2.63-0.7
		c-0.83-1.35,0.05-2.35,1.1-2.84c2.95-1.37,3.07-4.59,4.73-6.74c1.59-2.05,5.19-2.37,5.28-6.09c-3.9-0.63-4.91,3.79-8.05,4.34
		c-1.86,0.33-3.77,2.57-5.49,0.86c-1.99-1.98,0.87-3.46,1.47-5.19c0.48-1.38,1.27-2.64,2.29-4.68c-3.59,1.44-6.64,2.37-9.82,2.74
		c-1.21,0.14-2.48,1.82-3.58,0.28c-1.2-1.68,0.64-2.63,1.45-3.78c0.37-0.53,0.89-1,0.1-2.05c-2.24,0.42-3.87,2.9-6.44,2.79
		c-1.88-0.08-4.3-0.25-2.8-2.93c2.16-3.85-0.29-2.99-2.22-2.44C15.47,17.99,8.24,16.9,1,16c0-0.67,0-1.33,0-2
		c6.62-7.9,15.93-3.42,24.26-4.63c-0.8-2.12-3.78-2.93-1.85-5.06c1.39-1.54,3.34-1.3,5.07-0.49c1.33,0.62,2.57,1.46,3.78,2.29
		c1.44,0.98,2.94,2.52,2.94-0.95c0-2.87,1.46-3.62,3.82-2.2C41.66,4.56,41.68,2.66,42,1c1,0,2,0,3,0c4.39,2.42,5.75,7.55,9.53,11.73
		c0.71-4.09-2.72-5.46-2.54-8.33c0.13-2.08,0.61-3.2,2.45-1.82c3.85,2.89,7.24,6.14,9.07,10.94c1.13,2.96-0.12,4.74-1.49,6.8
		c-0.66,1-0.56,1.89,0.44,2.57c0.56,0.39,1.39,0.62,1.76-0.06c1.85-3.4,4.82-6.31,4.84-10.53c0.01-1.56-1.17-3.77,1.11-4.23
		c2.36-0.48,3.61,1.61,3.97,3.65c0.53,3-0.04,6.29,3.96,7.62c1.07,0.35,0.64,2.07-0.04,3.13c-0.93,1.46-1.32,2.94-0.87,4.73
		c0.47,1.88-0.49,3.56-2.32,3.8c-4.83,0.64-2.35,2.6-0.9,4.3c1.37,1.61,2.49,3.54,5.08,4.52c-0.42-1.7-0.72-3.09-1.1-4.46
		c-0.72-2.54,2.3-1.9,2.8-3.36c0.15-0.44,0.03-0.98,0-1.47c-0.33-6.05,3.52-11.11,4.05-16.99c0.15-1.63,1.57-1.96,3.04-0.91
		c1.46,1.05,6.3,13.69,5.28,15.04c-1.67,2.21,1.2,6.44-3.33,7.23c-0.09,0.02-0.25,1.01-0.03,1.26c4.98,5.84-0.85,5.82-3.92,7.37
		c-1.09,0.55-3.7,0.5-2.01,2.79c2.65,3.59,5.54,7.04,9.7,9.57c0.32-2.09-0.98-2.99-1.27-4.23c-0.31-1.37-0.86-4.04,0.53-3.91
		c5.25,0.48,2.42-2.74,2.41-4.57c-0.01-1.48-0.63-3.38,1.15-3.92c2.46-0.75,1.62-2.02,1.53-3.76c-0.18-3.66,1.95-6.85,4.08-9.43
		c0.84-1.01,2.01-1.5,1.95-3.11c-0.05-1.49-0.2-3.45,1.8-3.48c2.16-0.03,2.38,2.11,2.44,3.72c0.12,3.3-0.24,6.59,2.37,9.34
		c1.18,1.24,0.36,2.82-0.6,4.1c-0.59,0.79-1.81,2.02-1.6,2.37c2.23,3.74,2.16,6.71-2.14,8.86c-0.63,0.32-0.2,1.28,0.31,1.71
		c3.63,3.06,1.63,4.66-1.5,6.04c-0.59,0.26-1.47,0.67-1.09,1.4c2.44,4.67-2.44,3.6-4.56,5.06c5.46,5.38,10.82,10.05,17.39,13.55
		c-5.04-4.81,0.6-11.38-3.05-16.36c-0.57-0.77,0.96-1.79,1.06-2.48c0.65-4.68,1.07-9.38,3.17-13.73c0.16-0.32-0.38-0.93-0.4-1.41
		c-0.03-0.64-0.06-1.73,0.24-1.86c4.7-2.05,2.96-5.48,2.05-8.81c-0.42-1.53-0.24-3.15,1.52-3.75c1.7-0.58,3.02,0.55,3.66,1.91
		c0.76,1.62,1.09,3.46,1.48,5.23c0.33,1.51,0.62,2.73,2.51,3.21c4.75,1.21,5.05,4.32,2.79,7.99c-1.06,1.72-1.69,2.76,0.25,4.54
		c3.07,2.82-1.25,4.01-1.79,6.07c-0.64,2.41,4.93,3.06,2.14,6.38c-0.64,0.76-1.48,1.34-2.23,1.99c-0.94,0.81-1.11,1.77-0.06,2.47
		c5.43,3.63,1.43,5.37-1.46,7.21c0.14,1.99,3.48,2.07,2.45,4.49c-0.83,1.95-3.22,1.71-5.21,2.98c6.26,3.46,12.53,4.61,19.71,6.44
		c-2.42-3.42-6.04-2.68-7.79-5.01c-0.59-0.79-1.44-1.58-0.73-2.62c0.61-0.89,1.48-0.38,2.23-0.05c0.78,0.35,1.56,0.57,2.47,0.02
		c-1.03-2.35-3.82-2.46-5.33-4.16c-2.24-2.52-1.13-3.67,4.65-4.54c-0.45-2.44-3.7-5.61-2.2-6.68c5.18-3.69,0.64-6.5-0.02-9.67
		c-0.26-1.26-0.59-3.39,1.09-3.21c3.91,0.43,2.69-1.44,1.99-3.38c-0.53-1.48,0-2.43,1.41-3.24c3.31-1.9,2.47-4.25,0.41-6.56
		c-0.66-0.74-1.53-1.32-2.11-2.11c-0.87-1.2-2.01-2.64-0.38-3.93c1.36-1.08,2.44,0.02,3.36,1.08c1.65,1.92,3.64,3.42,5.85,4.62
		c1.28,0.7,2.18,1.69,2.01,3.15c-0.51,4.44,7.14,6.79,3.08,12.12c-0.01,0.01,0.21,0.25,0.35,0.33c4.23,2.43,2.06,5.15,0.44,7.94
		c-0.56,0.98-2.37,2.88-0.68,3.19c7.26,1.32,3.24,4.72,1.63,7.58c-0.79,1.4-1.81,2.54,0.14,3.69c2.93,1.73,3.43,3.43,0.98,6.34
		c-0.73,0.87-3.79,5.46,1.2,5.69c5.33,0.24,10.63-1.11,16.45-3.13c-2.88-1.32-5.01-2.19-7.04-3.27c-1.29-0.68-3.4-2.3-2.32-3.2
		c3.62-3.03,0.09-3.86-1.17-5.5c-0.79-1.03-2.86-2.91-0.57-3.37c5.53-1.09,1.2-2.52,0.35-3.68c-1.23-1.68-4.56-3.14-3.37-5
		c2.5-3.88-3.87-6.8-0.45-10.27c-3.99-3.64-2.88-10.8-9.02-13.02c-1.02-0.37-1.76-1.5-2.63-2.27c-0.76-0.68-1.66-1.45-1.14-2.51
		c0.53-1.08,1.73-0.86,2.66-0.56c2.45,0.79,4.36,2.42,6.03,4.3c1.81,2.03,3.38,4.06,6.69,2.46c1.68-0.81,3.62,0.4,4.07,2
		c1.04,3.73,3.75,4.14,6.84,4.25c1.05,3.4-2.07,8.49,4.19,9.87c0.96,0.21,0.84,2.39,0.53,3.71c-0.44,1.89-0.96,3.75-1.54,5.98
		c2.22-0.08,4.42-1.47,5.89,1.14c1.44,2.56-1.82,4.1-1.16,6.39c6.38,0.05,6.38,0.05,2.26,10.61c6.45-1.92,12.3-4.24,17.93-8.21
		c-2.83-1.55-6.14-0.12-7.35-2.82c-0.87-1.97,3.07-1.08,2.76-3.27c-1.8-1.63-4.08-1.21-6.18-1.54c-1.37-0.21-2.71-0.58-3.21-1.99
		c-0.63-1.8,0.83-2.1,2.06-2.7c2.04-1,1.26-1.95-0.31-2.63c-0.91-0.39-1.86-0.73-2.81-1c-3.35-0.96-2.89-2.86-2.49-5.82
		c0.23-1.73-6.12-0.66-5.68-3.96c0.73-5.47-2.55-3.58-5.01-3.62c-0.87-1.01-2.64-2.23-2.46-2.98c1.29-5.37-2.78-4.97-5.79-5.77
		c-1.61-0.43-3.69-0.75-3.45-2.86c0.22-1.95,2.33-2.11,3.94-2.45c3.06-0.63,5.47,1.98,8.52,2.1c-0.6-4.42-0.03-4.86,4.77-5.29
		c2.19-0.19,5.04,1.17,6.03-2.64c1.08-4.15,2.93-4.59,6.23-1.74c1.49,1.28,2.85,2.86,3.82,4.56c2.12,3.7,4.45,1.97,5.47-0.24
		c1.87-4.08,5.14-4.84,8.89-5.22c1.12-0.11,2.73,0.32,3.09-1.01c2-7.37,5.58-3,8.86-1.33c1.04,0.53,2.04,2.65,3.27,0.94
		c3.1-4.32,4.15-0.22,5.84,1.22c1.18,1.01,1.79,4.19,3.19,3.1c3.43-2.69,4.49,0.61,6.53,2.16c0.5-1.06,0.92-1.76,1.16-2.51
		c1.8-5.77,2.36-11.73,2.72-17.74c0.08-1.38-0.36-3.57,1.71-3.56c2.33,0.02,1.93,2.27,1.94,3.86c0.03,3.34-0.35,6.61-1.13,9.89
		c-1.51,6.38-3.85,12.5-6.46,19.09c4.77-1.62,8.42,2.13,12.39,0.33c0.23-0.1,1.02,0.43,1.15,0.81c1.17,3.53,3.16,1.66,5.01,0.83
		c1.83-0.82,3.78-1.79,5.66-0.47c2.13,1.5-0.63,3.23,0.01,5.4c3.02-0.64,5.95-2.13,9.12-1.59c0,1,0,2,0,3
		c-6.36,0.81-11.18,8.38-18.69,4.26c-0.61-0.33-1.23,0.25-1.57,0.89c-1.96,3.8-3.55,1.08-5.3-0.25c-1.12-0.85-2.02-3.49-3.21-2.45
		c-4.12,3.58-4.49-0.45-5.87-2.48c-0.71-1.05-1.26-3.02-2.72-1.2c-0.96,1.2-3.39,3.16-1.42,4.56c2.04,1.45,3.26,4.3,6.89,3.89
		c2.92-0.33,6.09,1.18,5.55,5.25c-0.19,1.46,0.4,1.77,1.39,2.04c3.9,1.09,3.98,6.6,8.46,7.21c0.91,0.12,1.2,2.13,0.46,3.12
		c-1.83,2.44-0.45,2.97,1.67,3.45c2.92,0.66,6.5,1.15,6.26,5.11c-0.29,4.79-4.69,2.04-7.42,3.2c1.29,2.59,2.7,4.99,3.7,7.55
		c0.81,2.09,0.95,4.66-1.41,5.72c-2.26,1.01-2.73-1.76-3.96-2.92c-1.35-1.28-1.31-4.68-3.79-3.88c-3.53,1.13-3.44-1.11-4.16-3.12
		c-0.47-1.31-0.5-4.14-1.79-3.6c-6.07,2.54-4.39-2.54-5.57-5.01c-0.4-0.82-0.16-3.98-2.49-1.96c-3.57,3.1-3.7,0.14-4.24-2.11
		c-0.61-2.59-0.61-5.26-4.73-4.75c-2.14,0.26-2.48-2.19-2.78-4.07c-0.28-1.74,1.12-3.51-0.37-5.63c-2.42,2.41-4.75,4.68-7.02,7
		c-1.75,1.79-0.8,2.47,1.19,2.78c1.47,0.23,3.01,0.44,4.36,1.02c1.75,0.76,5.04,1.79,4.08,3.52c-2.03,3.66,0.61,3.96,2.44,5.31
		c2.17,1.6,4.15,3.45,0.61,5.72c-2.27,1.46-0.47,2.33,0.37,3.45c1.96,2.63,6.54,4.67,1.94,8.86c-0.79,0.72,0.32,1.79,0.92,2.57
		c1.02,1.31,2.06,2.62,3.02,3.98c1.25,1.78,2.56,3.57,1.77,5.96c-0.98,2.94-3.59-0.24-5.16,1.31c0.9,1.87,1.79,3.64,2.6,5.44
		c0.6,1.32,0.56,3.47-0.61,3.51c-6.15,0.2-4.21,5.05-5.11,8.25c-0.64,2.26-0.16,6.08-3.4,5.67c-3.65-0.47-2.97-4.15-2.56-6.97
		c0.12-0.81,0.62-1.57,0.74-2.38c0.31-2.16,2.32-5.04-2.52-4.89c-1.82,0.06-1.78-2.16-1.3-3.64c0.61-1.89,1.47-3.71,2.17-5.57
		c0.51-1.37,0.72-2.82-1.28-2.95c-3.83-0.25-3.09-2.55-2.49-4.96c0.47-1.88,1.84-3.58,1.14-6.08c-5.86,3.47-4.86-3.31-7.22-5.13
		c-3.26-2.51,1.01-6.66,0.17-10.27c-1.98,0.09-3.19,3.39-5.37,1.03c-1.56-1.7-0.33-4.1-1.27-6.16c-5.12,2.79-9.96,5.43-15.31,8.34
		c1.25,0.53,1.83,0.81,2.44,1.02c6.17,2.13,6.49,2.85,2.95,8.01c-1.23,1.8,0.33,2.31,1.1,3.22c1.39,1.66,3.7,4.31,1.75,5.5
		c-5.14,3.13-2.72,5.75-0.59,8.97c1.2,1.82-1.32,3.79-1.2,4.5c0.79,4.57-1.38,8.61-1.71,12.55c-0.67,7.98-3.04,14.86-6.56,21.68
		C192.33,149,191.67,149,191,149z M224.31,55.07c-2.44,0.95-4.83,2.1-7.35,2.77c-1.66,0.44-4.09-0.08-2.8-2.42
		c2.98-5.43-1.37-3.38-3.41-3.66c-1.56-0.21-4.59,0.64-4.35-0.95c0.85-5.68-3.2-3.5-5.52-3.91c-1.95-0.34-4.36,0.08-5.29-2.04
		c-1.28-2.91,2.85-2.02,3.41-4.48c-2.51-0.58-4.85-1.59-7.7-0.93c0.86,2.31,1.98,4.39,2.38,6.61c0.5,2.78,0.67,5.12,4.51,3.31
		c1.31-0.62,2.65,0.45,3.37,1.6c1.47,2.32-0.41,7.8,5.58,5.77c0.06-0.02,0.32,0.25,0.31,0.36c-0.59,4.82,6.71,5.56,4.52,12.15
		C217.7,64.47,221.51,60.24,224.31,55.07z M237.5,38.15c-1.19-0.76-1.81,0.26-2.51,0.25c-1.79-0.02-4.58,3.63-5.16-1.79
		c-0.2-1.83-3.67,0.43-5.69,0.33c-1.06-0.05-2.32,0.63-1.33,1.72c1.21,1.34,1.69,4.81,2.73,4.14c5.24-3.35,4.07,3.12,6.79,4.05
		C234.28,44.07,236.32,41.42,237.5,38.15z"/>
</g>
</svg>
