<svg id="Laag_0_Image" data-name="Laag 0 Image" xmlns="http://www.w3.org/2000/svg" viewBox="0 0 285.53 172.39"><defs><style>.cls-1{fill:#fff;}</style></defs><title>icon__catering</title><path class="cls-1" d="M93.51,115c1.38-11.53,3-24.74,4.5-38,.74-6.42,1.71-12.87.44-19.34C98,55.3,97.2,53.25,94.2,55.16c-2,1.24-3.74.62-5.68-.12q-28-10.6-56-21.07A30.11,30.11,0,0,1,21.1,27.09c-3.4-3.47-7.77-5.68-12-8a41,41,0,0,1-4.21-2.68C.32,13-1.13,8.77.89,4.77,2.63,1.31,8.19-1,12.66.47c5.8,2,11.41,4.54,17.09,6.86Q63.22,21,96.7,34.63c2.24.92,4.41,1.92,7.15.75,20.3-8.68,41.78-9.16,63.27-8.06,23.15,1.18,46,4.67,68.21,11.7,14.8,4.68,29.14,10.45,41.52,20.16a32.2,32.2,0,0,1,5.39,5.17c5.07,6.38,4.28,12.5-2.35,17.11a8.42,8.42,0,0,0-3.78,6c-3,17.21-6.29,34.36-9,51.62-1.59,10.28-7.37,17.23-15.61,22.6-11,7.19-23.4,10.11-36.42,10.52-32.85,1-64.74-2.93-94.39-18.33-7.45-3.87-14.37-8.45-19.74-15S93.24,125,93.51,115ZM13.41,4.21a1.45,1.45,0,0,0-1.74,1.27C11.47,7,13,7.24,14.06,7.53c3,.86,6.09,1.58,9.15,2.26C24,10,25,10.2,25.4,9.28,25.84,8.12,24.9,7.47,24,7A27.56,27.56,0,0,0,13.41,4.21Z"/></svg>