<svg id="acorn_Image" data-name="acorn Image" xmlns="http://www.w3.org/2000/svg" viewBox="0 0 237.96 334.51"><defs><style>.cls-1{fill:#b5944d;}</style></defs><title>icon__footer-anchor</title><path class="cls-1" d="M25.63,189c-9.55-.31-15.61-5.68-19.58-13.6-7.87-15.69-8-31.64-.68-47.59,5-10.76,12.46-19.58,21.36-27.26,7.55-6.53,16.33-11,25.52-14.74A152.88,152.88,0,0,1,87.4,76.63a214,214,0,0,1,26.28-2.12l.75-.06c.25-3.2.53-6.34.73-9.48,1.23-18.79,5.4-36.77,14.53-53.42,1.26-2.31,2.45-4.67,3.57-7A7.51,7.51,0,0,1,139.68.14a23.34,23.34,0,0,1,9.81,1.15,38.75,38.75,0,0,1,14.85,8,17.45,17.45,0,0,1,2.85,3.22c1.61,2.36,1.79,4.88,0,7.24s-3.81,4.93-5.86,7.28c-6.64,7.59-13,15.41-18.06,24.16a80,80,0,0,0-9,22.21c-.28,1.21-.13,1.37,1.08,1.45,2.58.18,5.16.47,7.74.6a137.62,137.62,0,0,1,22,3.12c14,3,27.32,7.56,39.53,15.1,11.07,6.83,20.1,15.62,26.09,27.31,5.47,10.67,7.51,22.08,7.21,34a65.71,65.71,0,0,1-.85,10.5,32.53,32.53,0,0,1-7.34,16c-4,4.57-9.24,6.53-15.24,6.63-.44,0-.87,0-1.25,0,.09,3,.33,5.87.23,8.76-.92,27.79-6.37,54.59-17.88,80a113.65,113.65,0,0,1-22.37,33.38,81.33,81.33,0,0,1-44.91,23.48c-9.27,1.65-18.14.31-27-2.27C83.86,326.4,70,316.06,58.89,301.77c-9.29-12-15.77-25.41-20.7-39.64A227.56,227.56,0,0,1,28,218.59,251,251,0,0,1,25.63,189Z"/></svg>