<svg id="seitan--v1_Image" data-name="seitan--v1 Image" xmlns="http://www.w3.org/2000/svg" width="13.62" height="29.32" viewBox="0 0 13.62 29.32">
  <defs>
    <style>
      .cls-1 {
        fill: #fff;
      }
    </style>
  </defs>
  <title>icon__seitan</title>
  <g>
    <path class="cls-1" d="M.36,20.53c.1.29.19.58.3.86a7,7,0,0,0,.87,1.72.61.61,0,0,0,.52.26,5.46,5.46,0,0,0,.57,0,1.94,1.94,0,0,1,1.84.8,3.46,3.46,0,0,1,.22.31c.05.08.11.08.19,0s0-.1,0-.15a1.52,1.52,0,0,1-.22-1.22,1.62,1.62,0,0,1,.7-.81c.13-.09.26-.16.38-.26a.48.48,0,0,0,.17-.44c-.08-.5-.15-1-.22-1.5,0-.2-.07-.4-.1-.6h0c0,.21.12.42.16.63.11.55.2,1.1.32,1.64.06.26.18.51.26.77a1.41,1.41,0,0,1,.07.86,1.16,1.16,0,0,1-.23.44c-.23.27-.48.51-.72.76s-.13.18,0,.32a12.82,12.82,0,0,0,2.18,1.91A14.27,14.27,0,0,0,13,29.17c.2,0,.41.08.61.15l-.85-.07a12.72,12.72,0,0,1-7.67-4A.61.61,0,0,0,4.53,25c-.32,0-.64,0-1,.09a1.38,1.38,0,0,1-1.23-.43,3.86,3.86,0,0,1-.75-1.09c-.12-.24-.27-.45-.41-.68a7.11,7.11,0,0,1-.79-2.13,1.89,1.89,0,0,1,0-.23Z"/>
    <path class="cls-1" d="M4.24,0a.64.64,0,0,1,0,.15A2.73,2.73,0,0,0,3.72,1.4,2.38,2.38,0,0,0,4.16,3a3.62,3.62,0,0,0,.22.32.17.17,0,0,1,0,.25,3.25,3.25,0,0,1-.88.55,7.44,7.44,0,0,1-.78.31c-.26.09-.33.06-.41-.19A4.48,4.48,0,0,1,2,3.17a2.6,2.6,0,0,1,.13-.95,4.13,4.13,0,0,1,.45-1A2.49,2.49,0,0,1,4.09,0Z"/>
    <path class="cls-1" d="M11.8,3.79a5.35,5.35,0,0,1,.14.8,3.07,3.07,0,0,1-.65,2,3,3,0,0,1-1,1,7.14,7.14,0,0,1-.81.31c-.18.06-.25,0-.32-.17a5.91,5.91,0,0,1-.34-1.77c0-.28,0-.3.3-.3a3.68,3.68,0,0,0,1.09-.2A2.17,2.17,0,0,0,11.4,4.39l.24-.48a.64.64,0,0,1,.1-.13Z"/>
    <path class="cls-1" d="M4.22,9.21a4.18,4.18,0,0,1-.33-.57,1.25,1.25,0,0,1,.17-1.21c.53-.8,1.08-1.59,1.63-2.38.28-.39.6-.77.92-1.14C6,4.71,5.48,5.52,5,6.37l0,0,1.24-.76L6.11,7l1.8-2.36,0,0L7.72,5A20.44,20.44,0,0,0,6.05,7.51c-.11.2-.17.42-.26.62a1.66,1.66,0,0,1-.92.9C4.66,9.1,4.45,9.15,4.22,9.21Z"/>
    <path class="cls-1" d="M0,18.22c.14.56.27,1.13.44,1.69a7.89,7.89,0,0,0,.37.91.61.61,0,0,0,.56.36c.18,0,.35,0,.53,0a1.83,1.83,0,0,1,1.69,1.19c.1.21.18.43.27.68l-.36,0c-.32,0-.65,0-1,0A1.25,1.25,0,0,1,1.4,22.4a6.44,6.44,0,0,1-.4-.73c-.17-.39-.33-.79-.48-1.19a7.92,7.92,0,0,1-.46-2A2.64,2.64,0,0,1,0,18.22Z"/>
    <path class="cls-1" d="M0,15.79c0,.31,0,.6.07.89A8.07,8.07,0,0,0,.48,18.5a.64.64,0,0,0,.63.46,2.44,2.44,0,0,1,.89.18,1.65,1.65,0,0,1,.91,1c.09.27.15.55.22.83-.46-.06-.88-.13-1.31-.15a1.12,1.12,0,0,1-1-.71,7.18,7.18,0,0,1-.33-.92c-.1-.31-.18-.63-.27-.95A7.89,7.89,0,0,1,0,15.91,1,1,0,0,1,0,15.79Z"/>
    <path class="cls-1" d="M.28,13.53c0,.57,0,1.17,0,1.77a5.55,5.55,0,0,0,.17,1.07c.07.26.33.33.57.37a4,4,0,0,1,.5.11,1.5,1.5,0,0,1,1,1.15c.06.31.1.63.15.95l-1.47-.34A1,1,0,0,1,.59,18a3.76,3.76,0,0,1-.26-1.1c0-.39-.11-.78-.16-1.17a8.89,8.89,0,0,1,.08-2.06A.93.93,0,0,0,.28,13.53Z"/>
    <path class="cls-1" d="M2.46,16.92l-1.29-.44a.85.85,0,0,1-.56-.64,6.83,6.83,0,0,1-.15-1c0-.43,0-.87,0-1.3a10.56,10.56,0,0,1,.14-1.26c0-.31.14-.61.21-.92a.24.24,0,0,1,0-.07c-.06.45-.16.92-.19,1.4a12,12,0,0,0,0,1.47c0,.2.19.31.37.38a5.62,5.62,0,0,1,.72.27,1.33,1.33,0,0,1,.7,1A3.47,3.47,0,0,1,2.46,16.92Z"/>
    <path class="cls-1" d="M3.61,5.05c-.14.3-.28.59-.41.89a8.93,8.93,0,0,0-.53,1.61A.64.64,0,0,0,3,8.23a5.85,5.85,0,0,1,.49.38,1.29,1.29,0,0,1,.36,1.06,3.8,3.8,0,0,1-.38,1.24l-1.07-.83a.72.72,0,0,1-.27-.56,3.5,3.5,0,0,1,.24-1.4c.1-.31.19-.61.27-.92a8.82,8.82,0,0,1,.93-2.08L3.59,5Z"/>
    <path class="cls-1" d="M2.53,14.9l-.89-.43-.1,0a1.06,1.06,0,0,1-.73-1,5,5,0,0,1,.08-1.16c0-.32,0-.65.08-1a9.51,9.51,0,0,1,.51-2,.15.15,0,0,1,.07-.07c0,.1-.05.19-.08.28a10,10,0,0,0-.37,2c0,.11,0,.22,0,.33a.57.57,0,0,0,.37.54,3.6,3.6,0,0,1,.7.37,1.19,1.19,0,0,1,.47.83A3.36,3.36,0,0,1,2.53,14.9Z"/>
    <path class="cls-1" d="M2.86,12.88c-.4-.24-.8-.47-1.18-.72a.87.87,0,0,1-.32-.71,3.76,3.76,0,0,1,.15-1.25c.1-.39.14-.79.23-1.18a9.19,9.19,0,0,1,.71-2A.23.23,0,0,1,2.53,7l-.14.36a10.24,10.24,0,0,0-.6,2.25.62.62,0,0,0,.42.76,1.61,1.61,0,0,1,.68.56,1.18,1.18,0,0,1,.22.77,3.58,3.58,0,0,1-.23,1.17S2.86,12.87,2.86,12.88Z"/>
    <path class="cls-1" d="M5.29,17.56c0,.76.08,1.53.13,2.29,0,.27.09.53.12.8a4.06,4.06,0,0,1,0,.7,1.18,1.18,0,0,1-.53.81c-.31.24-.6.5-.91.77A2.8,2.8,0,0,1,3.77,22a1.33,1.33,0,0,1,.91-1.61A2,2,0,0,0,5,20.24a.5.5,0,0,0,.24-.45V17.56Z"/>
    <path class="cls-1" d="M5.17,15.83c0,.21,0,.42,0,.62,0,.57-.12,1.14-.17,1.71,0,.19,0,.38,0,.57a1.7,1.7,0,0,1-.24,1.15,1.74,1.74,0,0,1-.38.33l-1.05.72a2.1,2.1,0,0,1-.09-1.67,1.49,1.49,0,0,1,.84-.7l.24-.08a.75.75,0,0,0,.55-.68c.06-.62.16-1.23.24-1.84a.59.59,0,0,1,0-.13Z"/>
    <path class="cls-1" d="M2.89,18.9a2,2,0,0,1,.21-1.76,1.7,1.7,0,0,1,1-.56c.1,0,.2,0,.3-.09a.73.73,0,0,0,.41-.58c.18-.66.35-1.31.55-2a5.86,5.86,0,0,1-.1.58c-.13.61-.29,1.23-.42,1.84,0,.25,0,.5-.07.75a4.5,4.5,0,0,1-.17.6,1,1,0,0,1-.54.55C3.68,18.46,3.3,18.68,2.89,18.9Z"/>
    <path class="cls-1" d="M2.71,16.89a2,2,0,0,1,.42-1.71,1.68,1.68,0,0,1,1.11-.46A.81.81,0,0,0,5,14.18c.22-.6.46-1.18.7-1.77a.76.76,0,0,1,.09-.18A17.7,17.7,0,0,1,5,14.46c-.08.2-.09.42-.16.62A8.26,8.26,0,0,1,4.5,16a.88.88,0,0,1-.47.4Z"/>
    <path class="cls-1" d="M6.35,10.56c-.19.43-.38.86-.58,1.29s-.33.61-.48.92a3.31,3.31,0,0,0-.14.41,2.54,2.54,0,0,1-.61,1.07,1.22,1.22,0,0,1-.54.28c-.4.11-.8.24-1.22.37a3.14,3.14,0,0,1,.17-1,1.5,1.5,0,0,1,1.47-1l.35,0a.76.76,0,0,0,.56-.44l.93-1.77.06-.11Z"/>
    <path class="cls-1" d="M8.05,7.3c-.21.31-.42.63-.65.94S6.82,9,6.55,9.33c-.15.2-.25.43-.39.64a2.67,2.67,0,0,1-.63.67,1.27,1.27,0,0,1-.57.18L3.65,11c.06-.17.12-.36.19-.55a2.06,2.06,0,0,1,.57-.83,1.54,1.54,0,0,1,1.11-.33c.19,0,.38,0,.57,0a.57.57,0,0,0,.48-.23c.48-.58.95-1.17,1.42-1.75a.08.08,0,0,0,0,0Z"/>
    <path class="cls-1" d="M3.09,12.93c.05-.22.09-.44.16-.65a2,2,0,0,1,.41-.76,1.59,1.59,0,0,1,1.25-.47,2.54,2.54,0,0,0,.55,0,.56.56,0,0,0,.31-.2C6.19,10.22,6.59,9.61,7,9a.28.28,0,0,1,.12-.12c-.18.32-.35.65-.55,1s-.49.76-.73,1.14-.25.52-.39.78a1.55,1.55,0,0,1-.82.81,5.23,5.23,0,0,1-.57.12Z"/>
  </g>
</svg>
