<svg id="Layer_1" data-name="Layer 1" xmlns="http://www.w3.org/2000/svg" width="20.14" height="201.29" viewBox="0 0 20.14 201.29">
  <defs>
    <style>
      .cls-1 {
        fill: #b5944d;
      }
    </style>
  </defs>
  <title>icon__profile__knife</title>
  <path class="cls-1" d="M10,0h3c1,2.18,2.8,4.31,2.93,6.54.85,13.62,1.65,27.26,1.84,40.9.34,25.79,0,51.58.42,77.37.36,23,1.35,45.93,1.94,68.89.13,4.74-3.73,7.76-9,7.58s-8-2.82-7.89-7.95c.93-29.78,1.92-59.56,2.71-89.35.06-2.29-1.09-4.71-2-6.91-1.07-2.43-2.56-4.68-3.87-7V40c.66-6.59,1.24-13.2,2-19.78C2.86,12.81,3.55,5.25,10,0Z"/>
</svg>
