<svg id="Layer_1" data-name="Layer 1" xmlns="http://www.w3.org/2000/svg" width="299.21" height="301.6" viewBox="0 0 299.21 301.6">
  <defs>
    <style>
      .cls-1 {
        fill: #b5944d;
      }
    </style>
  </defs>
  <title>icon__animal-rights</title>
  <path class="cls-1" d="M385,548c1.08-9.36,1.7-18.8,3.4-28,1.32-7.21-2-12.7-5.3-18.06-8.1-13-16.81-25.56-25-38.46a7,7,0,0,1-.17-5.73c2.23-4.81,5-9.36,7.94-14.65-3.54-2.85-7.2-5.86-10.93-8.78-8.37-6.58-16.72-13.21-25.22-19.62-1.87-1.41-4.47-3-6.54-2.8-21.44,2.33-41.77-2.56-61.72-9.37-31.42-10.71-61.1-24.83-86-47.42a117.12,117.12,0,0,1-13.24-14.87,22.87,22.87,0,0,1-4.07-9c-1.33-6.24,1.29-9.92,7.05-12.66a14,14,0,0,0,6.28-5.55c7.23-14.25,14.65-28.45,20.88-43.14,6-14.12,16.87-20.37,31-22.66,15.07-2.44,29.4,1,43.64,5.45,26.71,8.33,51.45,20.18,71.95,39.68a95.68,95.68,0,0,1,9.35,10.36c9.72,12.45,11.17,25.77,4.55,40.29-5.66,12.41-10.79,25.07-15.78,37.77-1.69,4.29-2.22,9-2.89,11.9,4.88,2.52,8.46,3.86,11.45,6,10.8,7.79,21.36,15.91,32.09,23.79,4.69,3.44,6.35,2.87,9.38-1.94,3.9-6.17,8-12.18,12.21-18.46,5.26,3.81,12.32,4.78,14.12,12,11.53-.44,19.18,6.14,18.87,16.16,11.11,2.32,16.57,7.79,16,15.26L457,451v13c-4.77,3.48-4.09,8.66-4.19,13.57-.2,9.44-1.23,19.07-7.29,26.4-7,8.52-7.89,17.89-7.5,28,.19,4.91,0,9.83,0,14.66L423,548Z" transform="translate(-157.79 -246.4)"/>
</svg>
