<svg id="Laag_3_Image" data-name="Laag 3 Image" xmlns="http://www.w3.org/2000/svg" viewBox="0 0 561.13 482"><defs><style>.cls-1{fill:#fff;}</style></defs><title>icon__reception</title><path class="cls-1" d="M561.13,437.93c-1.23,3.08-3.54,5.24-6.15,7.12a75.35,75.35,0,0,1-14.52,7.84c-10.72,4.65-21.82,8.18-33,11.63-12.89,4-25.76,8.05-38.68,11.91a115.82,115.82,0,0,1-23.43,4.82,48.14,48.14,0,0,1-9.06-.24,8.28,8.28,0,0,1-3.83-1.79c-1.43-1.08-1.52-2.36-.38-3.75a20.44,20.44,0,0,1,3.57-3.51c4.11-3,8.36-5.89,12.48-8.92,5.14-3.79,10.33-7.54,15.28-11.57,7.28-5.92,10.7-13.94,11.86-23.06,1.13-8.92-.7-17.49-3.14-26-.94-3.3-2.09-6.54-3.17-9.8q-11.73-35.22-23.47-70.44c-2-6.13-4.14-12.24-6.21-18.37-.18-.53-.39-1.05-.56-1.58a30,30,0,0,0-14.48-17.39c-13.12-7.3-23.63-17.66-33.07-29.19-12.09-14.78-22.16-30.88-31.14-47.68-12.38-23.16-22.32-47.38-31.11-72.08a795.6,795.6,0,0,1-26.23-91.07c-.55-2.4-1-4.83-1.55-7.54L419.75.4c.46,1,.87,1.89,1.23,2.76a788.1,788.1,0,0,1,29.28,84.61c5.26,18.43,9.77,37.05,13.31,55.89,2.15,11.45,3.87,23,5.07,34.58a297,297,0,0,1,1.69,41.63c-.57,15.37-2.12,30.61-7.55,45.17-1.37,3.66-2.88,7.28-4.54,10.82a25.82,25.82,0,0,0-1.86,17.95c.77,3,1.46,6.06,2.33,9q11,37.71,22,75.4c2.33,8,4.49,16,7.11,23.85A54.33,54.33,0,0,0,499,421.76a39.38,39.38,0,0,0,12.91,9.37,29.73,29.73,0,0,0,11.42,2.42c6.63.23,13.27.19,19.9.2,4.08,0,8.16,0,12.23-.19a7.37,7.37,0,0,1,5.65,2Z"/><path class="cls-1" d="M150.7,0,272.38,40.6c-.14.89-.23,1.73-.41,2.54a720.68,720.68,0,0,1-20.36,71.1c-9.38,27.72-20.23,54.83-33.58,80.9-9.7,19-20.72,37.11-34,53.8-7.44,9.33-15.45,18.13-24.8,25.62a81.4,81.4,0,0,1-15.6,10.25c-8.26,3.92-13.36,10.27-16.34,18.75q-12.3,35-24.82,70c-2.74,7.67-5.66,15.27-8.41,22.93a90.07,90.07,0,0,0-5.27,21.34c-1,9.61.66,18.68,6.12,26.75a34.63,34.63,0,0,0,6.83,7.32c5.58,4.53,11.41,8.75,17.17,13.06,3.58,2.68,7.25,5.24,10.8,8a18.29,18.29,0,0,1,3.16,3.24c1.14,1.46,1,2.64-.47,3.71a11.16,11.16,0,0,1-3.88,1.7c-3.65.84-7.33.33-11-.22A180.91,180.91,0,0,1,87,473.45q-26.67-9-53.23-18.24a120.41,120.41,0,0,1-21.14-9.58,65.56,65.56,0,0,1-8.44-5.87,14.31,14.31,0,0,1-3.49-4.48c-1.52-2.92-.41-4.78,2.84-4.76,5.19,0,10.38.43,15.57.52,7.27.13,14.55.34,21.81.12,10.87-.34,19.28-5.68,26.06-13.82a60.71,60.71,0,0,0,10.56-20c2.46-7.42,4.55-15,6.91-22.42,4.45-14.09,9-28.13,13.46-42.21,3.56-11.35,7-22.73,10.47-34.11.65-2.13,1.18-4.31,1.68-6.49a25.92,25.92,0,0,0-2-17c-2-4.43-3.86-8.95-5.46-13.54-3-8.64-4.45-17.63-5.4-26.7a226.48,226.48,0,0,1-.88-32.32,322.77,322.77,0,0,1,3-33.14c6.28-43.68,18.67-85.74,34.06-127,5-13.38,10.68-26.51,16.06-39.74C149.78,1.84,150.19,1.07,150.7,0Z"/></svg>