<?xml version="1.0" encoding="utf-8"?>
<!-- Generator: Adobe Illustrator 23.1.1, SVG Export Plug-In . SVG Version: 6.00 Build 0)  -->
<svg version="1.1" id="Laag_0_xA0_Image_1_" xmlns="http://www.w3.org/2000/svg" xmlns:xlink="http://www.w3.org/1999/xlink"
	 x="0px" y="0px" viewBox="0 0 203 180.85" style="enable-background:new 0 0 203 180.85;" xml:space="preserve">
<style type="text/css">
	.st0{fill:#FFFFFF;}
</style>
<g>
	<path class="st0" d="M0,180.54c0-1,0-2,0-3c1.29-0.68,1.6-2.04,2.26-3.17c7.98-13.73,13.81-28.46,19.93-43.05
		c2.25-5.36,4.17-10.86,6.1-16.35c0.44-1.27,1.52-3.52-0.45-3.89c-5-0.95-2.71-3.98-2.15-6.41c0.63-2.74,2.38-5.45,2.24-8.1
		c-0.36-7.1,3.63-10.47,9.39-12.83c1.85-0.76,3.62-1.69,5.45-2.5C62.42,72.58,79.08,59.8,94,44.51c3.37-3.46,4.97-7.26,5.06-12.02
		C99.24,22.99,99.73,13.5,99.9,4c0.05-3.05,1.19-4.45,4.18-3.86c7.48,1.49,14.93,0.48,22.4,0.06c2.72-0.15,5.52-0.5,8.25,0.35
		c-0.25,2.51-2.22,2.77-3.51,3.54c-2.69,1.61-4.24,2.98-0.22,4.8c0.6,0.27,1.13,0.7,1.67,1.1c0.91,0.68,2.35,1.22,2.16,2.5
		c-0.27,1.84-2.09,1.26-3.27,1.42c-7.78,1.04-15.63,1.56-23.43,0.85c-3.64-0.33-4.42,0.83-4.18,4c0.45,5.81,0.84,11.64,1.12,17.46
		c0.12,2.51,1.2,4.44,2.87,6.18c5.78,6,11.52,12.05,18.09,17.22c14.19,11.17,29.95,19.67,46.3,27.15c1.58,0.72,3.28,1.12,3.04,3.28
		c-0.62,5.68,0.97,10.85,3.26,15.95c0.6,1.34,1.54,3.86-0.69,4.25c-4.21,0.72-3.04,3.11-2.27,5.45
		c7.01,21.22,14.98,42.02,27.33,60.84c0,1.33,0,2.67,0,4c-2.15,0.11-4.3,0.31-6.46,0.31C131.03,180.76,65.51,180.65,0,180.54z"/>
</g>
</svg>
