<svg id="Laag_1_Image" data-name="Laag 1 Image" xmlns="http://www.w3.org/2000/svg" viewBox="0 0 297.26 440.83"><defs><style>.cls-1{fill:#b3924c;}</style></defs><title>illustration__kapsaga</title><path class="cls-1" d="M217.3,440.83h-2.64a55.56,55.56,0,0,0-5.77-.12H197.35c-3.44,0-6.88.07-10.31,0-2.75-.07-5.51-.1-8.26-.09a6,6,0,0,1-4.19-1.77,6.82,6.82,0,0,0-5.25-1.75c-4.36.1-8.71,0-13.07,0-1.56,0-3.1-.35-4.66-.25a3.27,3.27,0,0,0-2.42.87c-2.05,2.31-4.73,2.87-7.65,2.85-2.16,0-4.31,0-6.47,0-8.07-.08-16.14.12-24.21.13-.6,0-1.19-.1-1.78-.14a4.31,4.31,0,0,1-3.25-1.68c-1.42-1.88-3.37-2.64-5.58-3.17-6.73-1.62-13.52-2.84-20.37-3.82a19.21,19.21,0,0,0-2.63-.08,162.19,162.19,0,0,1-35.73-4.26,78.75,78.75,0,0,1-23.34-9.16C12.07,414.65,6.86,410,3.37,403.57A26.11,26.11,0,0,1,0,391.6c-.09-3.46,0-6.89.14-10.34a39.41,39.41,0,0,1,2.68-11.45,99,99,0,0,1,15.7-28.14,56.14,56.14,0,0,1,7.14-7.24c2.66-2.36,5.23-4.82,8-7.07a27.59,27.59,0,0,1,7.61-4.71A9.8,9.8,0,0,1,44.8,322a6.83,6.83,0,0,1,6.87,5.24,21.16,21.16,0,0,1-.15,12.06,28.45,28.45,0,0,1-6.93,11.9,50.27,50.27,0,0,0-12.68,23.44c-2,8.16,1,15.51,7.93,20.27,5.16,3.55,11,5.49,17,6.88a104.85,104.85,0,0,0,19.57,2.51c5.18.21,10.37.32,15.54.71,4,.31,8,.57,12,.72,1.46,0,1.81-.4,1.35-1.78a5.27,5.27,0,0,0-1.88-2.58,129,129,0,0,1-11.74-10,40.18,40.18,0,0,1-9.22-13.6,51.16,51.16,0,0,1-3.87-17.09,53.31,53.31,0,0,1,2.56-19.95,88.39,88.39,0,0,0,4-20.65c.66-8.13-.33-16.1-1.57-24.09-1.41-9.08-2.94-18.14-4.15-27.25A96.4,96.4,0,0,1,79,250.63,125.89,125.89,0,0,1,81.7,231.3c.9-4.14,2.33-8.14,3.49-12.21,1.33-4.69,3-9.29,4-14.06A72,72,0,0,0,90.58,191,114,114,0,0,0,90.3,178a95.57,95.57,0,0,1-.42-11.84,58.61,58.61,0,0,1,4-20.48,9.79,9.79,0,0,1,1.2-2.2,20.14,20.14,0,0,0,3.7-10.35,139,139,0,0,1,3.63-24.26c.77-3.07,2.1-6,3.07-9a126.57,126.57,0,0,0,5-24.5,77.14,77.14,0,0,0,.48-8.73,41.57,41.57,0,0,0-2.54-15.4c-1.42-3.65-1.14-7.39-.93-11.12.1-1.7.27-3.32-.6-4.89-1.28-2.32-1.18-4.94-1.56-7.45-.7-4.59-1.72-9.11-2.39-13.7a66.67,66.67,0,0,1-.86-9.78,11.31,11.31,0,0,1,.39-2.84,1.77,1.77,0,0,1,2-1.54A6.08,6.08,0,0,1,108,1a39.27,39.27,0,0,1,5.8,4.63c5.17,5,10,10.36,14.79,15.69,1.23,1.37,2.58,2.62,3.76,4a11.91,11.91,0,0,0,8.34,4.1c5.62.62,11.25.41,16.88.42,4.71,0,9.39-.59,14.09-.84a98.56,98.56,0,0,1,14.48-.16c2.46.23,4.94.12,7.41.24,3.23.17,6.45.49,9.68.61a3.3,3.3,0,0,0,2.51-.83c8.2-7.2,16.38-14.41,24.86-21.27,2.89-2.33,5.72-4.76,9.16-6.3a5.75,5.75,0,0,1,2.4-.67c1.44,0,2.14.69,2.08,2.14a11.76,11.76,0,0,1-.69,3c-1.84,5.79-3.94,11.49-6,17.21a98,98,0,0,0-5.07,18.84,17.43,17.43,0,0,0,0,6.07,21,21,0,0,1-.57,9.61,20.8,20.8,0,0,0-.88,8.71,66.79,66.79,0,0,1,.29,12.57A97.84,97.84,0,0,1,228,102c-2.76,9.77-5.22,19.62-7.09,29.6-.38,2.09-.72,4.18-1.11,6.26-.46,2.46.07,4.86.36,7.26,1,8.1,2,16.18,3.16,24.24a25,25,0,0,1,.06,3.24,131.27,131.27,0,0,0,5.73,38.26,66,66,0,0,0,4.91,11.56,128,128,0,0,1,8.25,19.14,272.23,272.23,0,0,1,10.63,42.65c.63,3.66,1.36,7.31,1.79,11s2.5,6.61,5.11,9.12a53.92,53.92,0,0,0,9.51,7.06A39.87,39.87,0,0,1,282,324.32c7.37,11.51,11.44,24.21,13.33,37.68a60.37,60.37,0,0,1-.94,19.88,139.65,139.65,0,0,0-1.94,15.93c-.31,4.26-.55,8.52-.69,12.79a9.76,9.76,0,0,0,1.06,4.62q1.84,3.9,3.49,7.89a15.09,15.09,0,0,1,1,5.1v2.1c-.13,4.38-2.72,7-7.1,7-8.3.05-16.61.07-24.91,0a22.33,22.33,0,0,1-9-1.61,13.18,13.18,0,0,0-5.06-.73q-9.39-.35-18.79-.28a63.28,63.28,0,0,0-7.28.5,3.12,3.12,0,0,0-2.72,2C221.45,439.45,219.53,440.37,217.3,440.83Z"/></svg>