<svg id="squirrel_Image" data-name="squirrel Image" xmlns="http://www.w3.org/2000/svg" viewBox="0 0 392.64 347.93"><defs><style>.cls-1{fill:#b5944d;}</style></defs><title>illustration__footer</title><path class="cls-1" d="M271.44,0h8.4a1.2,1.2,0,0,0,.37.23c3.15.56,6.34,1,9.46,1.7a71.28,71.28,0,0,1,19.35,8,97.37,97.37,0,0,1,14.57,9.91c4.8,4,9.72,8,14.29,12.23,4.41,4.14,8.52,8.61,12.63,13,3.35,3.63,6.58,7.37,9.74,11.16s6.5,7.8,9.48,11.89c6.9,9.47,13.63,19.06,20.47,28.57a2.44,2.44,0,0,1-.1,3,2.36,2.36,0,0,1-3,1,19.37,19.37,0,0,1-3.24-1.57c-2.88-1.75-5.64-3.69-8.56-5.36a47.88,47.88,0,0,0-21-6.51,69.45,69.45,0,0,0-12.73.49,67.07,67.07,0,0,0-15,3.77c-4.71,1.77-9.14,4-12.65,7.74a14.38,14.38,0,0,0-3.78,12.93,28.69,28.69,0,0,0,5.08,11.63,106.41,106.41,0,0,0,6.82,8.72c2.83,3.19,5.89,6.17,8.91,9.19s6,5.56,8.74,8.58q5.49,6,10.55,12.45c3.69,4.67,7.28,9.44,10.67,14.34a211.06,211.06,0,0,1,18.47,31.6c2.25,4.85,4.41,9.77,6.24,14.79a107.37,107.37,0,0,1,6.54,27.54c.09,1,.31,2,.47,3.08v12.71c-.24,1.61-.41,3.23-.73,4.82-.67,3.33-1.28,6.68-2.16,9.95a61,61,0,0,1-5.87,14,72.63,72.63,0,0,1-9.77,13.51,73.59,73.59,0,0,1-7,6.72c-3.14,2.67-6.39,5.22-9.75,7.62A119.7,119.7,0,0,1,335.15,336c-5.09,2.2-10.25,4.26-15.47,6.13-4.77,1.72-9.64,3.2-14.51,4.63a23.17,23.17,0,0,1-6.54,1.22,75.38,75.38,0,0,1-12.39-1,152.91,152.91,0,0,1-15.47-3.77,93.37,93.37,0,0,1-23.07-10.33c-3.42-2.13-6.61-4.64-9.85-7.05-1.79-1.34-3.42-2.92-5.26-4.19a4.81,4.81,0,0,0-3-.87,16.81,16.81,0,0,0-6.61,2.59,49,49,0,0,1-5.42,3c-4.4,1.92-9.15,2.24-13.85,2.38-3.72.12-7.46-.21-11.18-.43-2.8-.17-5.6-.37-8.37-.74-4.08-.54-8.15-1.2-12.21-1.9s-8.14-1.56-12.23-2.29c-2.78-.49-5.57-.9-8.37-1.28-1.79-.25-3.6-.42-5.4-.57-3-.26-6-.6-8.79,1-1.91,1.09-3.75,2.27-5.6,3.45a4,4,0,0,1-4.49.24c-2.15-1.28-4.23-2.68-6.38-4-1.75-1.05-2.13-1.91-1.49-3.89a10.88,10.88,0,0,1,4.67-5.87c5.41-3.52,11.33-3.81,17.47-2.74a78.84,78.84,0,0,0,8,1.26,77.25,77.25,0,0,0,9.38,0,75.8,75.8,0,0,0,9.4-1c4.6-.81,9.16-1.91,13.74-2.89v-1c.08-6.06.1-12.12.28-18.18a8.4,8.4,0,0,0-.92-4.26,50.59,50.59,0,0,0-9.2-12.07c-2.17-2.18-4.53-4.2-6.89-6.18a74.11,74.11,0,0,0-15.39-9.68c-2.85-1.4-5.53-1.24-7.85.9a78,78,0,0,0-5.92,6.14c-3,3.46-5.93,7.07-8.94,10.55-2.67,3.08-5.32,6.19-8.18,9.1-4.23,4.31-8.32,8.79-13.16,12.47-2.92,2.22-6,4.11-9.73,4.66A13.05,13.05,0,0,0,91.83,301a9,9,0,0,0-4.92,7.06,1.07,1.07,0,0,0,.63,1.31,14.82,14.82,0,0,1,5.39,4.49c1.53,2.15,2,4.45.64,6.83A13.76,13.76,0,0,1,86,326.86c-4,1.48-6.84.22-9-3a23.54,23.54,0,0,1-3.54-9c-.38-2-1-4.13-.6-6.05a37.33,37.33,0,0,1,4.78-12.65,23,23,0,0,1,5.77-6.94,13.69,13.69,0,0,0,5.2-7.12,72,72,0,0,0,2.3-8.94,117.55,117.55,0,0,0,1.43-12.41c.24-4,0-8.07.07-12.11A1.54,1.54,0,0,0,91.33,247c-4.08-1.78-8.21-3.49-12.18-5.5a48.45,48.45,0,0,1-11.61-8.4c-2-1.93-3.81-4-5.66-6.11a56.39,56.39,0,0,1-7.18-10.72,76.47,76.47,0,0,1-7.23-19c-.92-3.92-1.63-7.89-2.33-11.85a58.3,58.3,0,0,1-.77-6.32c-.17-2.62-.18-5.26-.21-7.89A24.33,24.33,0,0,0,44.3,168c-.6-4.08-3.06-7-6.23-9.37a40.64,40.64,0,0,0-13.58-6.25,55.07,55.07,0,0,1-14.44-6.32,24.47,24.47,0,0,1-7.53-6.55A33.59,33.59,0,0,1,0,134.07V130a41.44,41.44,0,0,1,1.06-4,40.1,40.1,0,0,1,9.07-13.62,58.68,58.68,0,0,1,5.7-5.22c3.74-3,7.5-6,11.42-8.71,3.34-2.32,6.93-4.27,10.37-6.44a2.78,2.78,0,0,0,1.14-1.4,10.25,10.25,0,0,0,.57-3.22q-.12-6-.47-11.9c-.14-2.39-.46-4.78-.73-7.17s-.69-5.06-.91-7.6c-.25-2.92-.15-5.88-.55-8.77-.47-3.39-2.19-6.1-5.67-7.12-1.86-.54-3.86-.58-5.78-1A6.2,6.2,0,0,1,23.54,43a9.5,9.5,0,0,1,1-1.47,4.35,4.35,0,0,1,1.32-.73,25.37,25.37,0,0,1,14.93-1.42,22.31,22.31,0,0,1,9.28,4,43.75,43.75,0,0,0,4.58,2.84,1.26,1.26,0,0,0,1.15-.07A1.42,1.42,0,0,0,56,45a11.18,11.18,0,0,0-.79-2.56c-1.46-3-3-5.83-4.49-8.79-.69-1.39-1.41-2.6-3.14-2.75a.91.91,0,0,1-.53-.23c-.56-.53-1.57-1.14-1.52-1.61a2.54,2.54,0,0,1,1.55-1.68,21.92,21.92,0,0,1,5.82-1.19,53.8,53.8,0,0,1,8.49.68,35.29,35.29,0,0,1,13.08,5A39.77,39.77,0,0,1,85.72,42.12a47.15,47.15,0,0,1,8.07,16.94A31.86,31.86,0,0,1,94.52,66a79.24,79.24,0,0,1-.25,8.58c-.25,3.13-.77,6.24-1.15,9.36-.34,2.81-.56,5.64-1,8.43a19.63,19.63,0,0,0,2.26,13.11,114.88,114.88,0,0,1,8.83,18.66,22.44,22.44,0,0,0,1.54,3.9,10.69,10.69,0,0,0,4.91,4.12,39.91,39.91,0,0,0,13,3.35c3.37.4,6.78.63,10.17.71,3.18.08,6.37-.13,9.55-.21l.24,0c5-.63,10-1.52,15-1.8a136.26,136.26,0,0,1,14.71.2c3.65.19,7.28.72,10.92,1.16a77.43,77.43,0,0,1,14.72,3.4c4.07,1.33,8,3,11.92,4.43-.42-2.26-1-4.7-1.31-7.16-.63-4.67-1.26-9.35-1.63-14.05a89.18,89.18,0,0,1,0-9.25q.15-6.07.49-12.14c.15-2.83.36-5.67.73-8.48.54-4,1-8.11,1.95-12.07,1.57-6.84,3.29-13.66,5.24-20.4a113.64,113.64,0,0,1,9-22A88.52,88.52,0,0,1,229,29.66a120.61,120.61,0,0,1,8.17-10.78,74,74,0,0,1,8.54-8.25A40.92,40.92,0,0,1,257.8,3.5c3.11-1.13,6.34-1.91,9.54-2.76C268.68.38,270.07.24,271.44,0Z" transform="translate(0 0)"/></svg>